HIERARCHY
ROOT Hips
{
	OFFSET 0.000000 0.000000 0.000000 
	CHANNELS 6 Xposition Yposition Zposition Yrotation Zrotation Xrotation 
	JOINT Lumbar
	{
		OFFSET 0.000000 0.000000 0.000000 
		CHANNELS 3 Zrotation Xrotation Yrotation
		JOINT Neck
		{
			OFFSET 0.000000 0.445665 0.000000 
			CHANNELS 3 Zrotation Xrotation Yrotation
			End Site
			{
				OFFSET 0.000000 0.227535 0.000000 
			}
		}
		JOINT RightShoulder
		{
			OFFSET 0.019635 0.377685 0.194865 
			CHANNELS 3 Zrotation Xrotation Yrotation
			JOINT RightElbow
			{
				OFFSET 0.000000 -0.243375 0.000000 
				CHANNELS 2 Zrotation Yrotation
				JOINT RightWrist
				{
					OFFSET 0.000000 -0.264825 0.000000 
					CHANNELS 2 Zrotation Xrotation
					End Site
					{
						OFFSET 0.006600 -0.176220 0.000990 
					}
				}
			}
		}
		JOINT LeftShoulder
		{
			OFFSET 0.019635 0.377685 -0.194865 
			CHANNELS 3 Zrotation Xrotation Yrotation
			JOINT LeftElbow
			{
				OFFSET 0.000000 -0.243375 0.000000 
				CHANNELS 2 Zrotation Yrotation
				JOINT LeftWrist
				{
					OFFSET 0.000000 -0.264825 0.000000 
					CHANNELS 2 Zrotation Xrotation
					End Site
					{
						OFFSET 0.006600 -0.176220 -0.000990 
					}
				}
			}
		}
	}
	JOINT RightHip
	{
		OFFSET 0.052140 -0.069960 0.075570 
		CHANNELS 3 Zrotation Xrotation Yrotation
		JOINT RightKnee
		{
			OFFSET 0.000000 -0.402270 0.000000 
			CHANNELS 1 Zrotation
			JOINT RightAnkle
			{
				OFFSET 0.000000 -0.404085 0.000000 
				CHANNELS 3 Zrotation Xrotation Yrotation
				End Site
				{
					OFFSET 0.204105 -0.089430 0.008415 
				}
			}
		}
	}
	JOINT LeftHip
	{
		OFFSET 0.052140 -0.069960 -0.075570 
		CHANNELS 3 Zrotation Xrotation Yrotation
		JOINT LeftKnee
		{
			OFFSET 0.000000 -0.402270 0.000000 
			CHANNELS 1 Zrotation
			JOINT LeftAnkle
			{
				OFFSET 0.000000 -0.404085 0.000000 
				CHANNELS 3 Zrotation Xrotation Yrotation
				End Site
				{
					OFFSET 0.204105 -0.089430 -0.008415 
				}
			}
		}
	}
}
MOTION
Frames: 28
Frame Time: 0.02
-0.00041 -0 -0.00031 172.25245 -44.69431 -0.39753 56.02822 1.94808 2.36123 -4.58241 -6.54511 -1.04449 130.06811 -72.52311 -85.24654 7.84965 74.77335 0.71427 -9.208 155.18272 74.66339 81.00609 8.32881 -70.62022 4.37796 10.6511 49.0987 -4.60675 -4.19109 -18.96774 -7.90934 -3.85453 -4.18758 52.47205 8.38693 1.92344 -24.10029 -9.15175 4.02189 4.32742
-0.00019 0 -0.0003 172.29851 -44.66891 -0.37282 56.02069 1.87604 2.3549 -4.68176 -6.25141 -1.04797 129.88094 -72.52024 -85.39856 7.85977 74.8042 0.74405 -9.1741 155.22937 74.62518 81.22206 8.33153 -70.63074 4.4623 10.60504 49.07369 -4.68908 -4.61342 -18.97254 -7.88402 -3.82943 -4.17203 52.45903 8.45357 2.29592 -24.10137 -9.12286 3.99545 4.31184
2e-05 1e-05 -0.0003 172.34442 -44.64355 -0.34817 56.01316 1.80417 2.3486 -4.7809 -5.9584 -1.05144 129.69395 -72.51741 -85.55019 7.86976 74.8349 0.77364 -9.14026 155.27581 74.58714 81.43739 8.33425 -70.64122 4.54636 10.55914 49.04874 -4.77117 -5.03444 -18.97732 -7.85877 -3.8044 -4.15652 52.44603 8.52006 2.66763 -24.10244 -9.09404 3.96907 4.29628
0.00024 2e-05 -0.00029 172.39034 -44.61823 -0.32354 56.00566 1.73234 2.3423 -4.87996 -5.66557 -1.0549 129.50737 -72.51454 -85.70176 7.87983 74.86566 0.80331 -9.10647 155.32237 74.54904 81.65266 8.33698 -70.65172 4.63044 10.51324 49.02381 -4.85324 -5.45547 -18.9821 -7.83353 -3.77938 -4.14102 52.43305 8.58651 3.03903 -24.10352 -9.06523 3.94271 4.28074
0.00045 3e-05 -0.00028 172.4364 -44.59287 -0.29886 55.99817 1.66035 2.33595 -4.97917 -5.37213 -1.05838 129.32052 -72.51165 -85.85368 7.89006 74.89659 0.83322 -9.07262 155.36901 74.5108 81.86866 8.33966 -70.66223 4.71479 10.46713 48.99882 -4.93556 -5.87783 -18.98689 -7.80821 -3.75429 -4.12547 52.42007 8.65307 3.41105 -24.10459 -9.03637 3.9163 4.26517
0.00067 4e-05 -0.00028 172.482 -44.56751 -0.27428 55.99054 1.58875 2.32977 -5.07817 -5.08005 -1.06184 129.13314 -72.50899 -86.00469 7.89952 74.9268 0.86213 -9.03877 155.41493 74.47321 82.08262 8.34247 -70.67263 4.79822 10.42162 48.97398 -5.01719 -6.296 -18.99167 -7.78311 -3.72939 -4.11006 52.407 8.71942 3.78209 -24.10567 -9.00762 3.88999 4.24966
0.00088 5e-05 -0.00027 172.52848 -44.54219 -0.24953 55.98322 1.51644 2.32325 -5.17749 -4.78555 -1.06531 128.94761 -72.50577 -86.15738 7.91057 74.95842 0.89302 -9.00503 155.46269 74.43422 82.30018 8.3451 -70.68332 4.88346 10.3751 48.94886 -5.10008 -6.72209 -18.99645 -7.7576 -3.70414 -4.0944 52.39413 8.78614 4.15469 -24.10674 -8.97869 3.86352 4.23405
0.0011 6e-05 -0.00027 172.57415 -44.51682 -0.22492 55.9756 1.44479 2.31705 -5.27653 -4.49332 -1.06878 128.75935 -72.50322 -86.30848 7.92005 74.98877 0.92207 -8.97106 155.50791 74.39678 82.51493 8.34773 -70.69361 4.96692 10.32925 48.92398 -5.18183 -7.14098 -19.00123 -7.73246 -3.67921 -4.07896 52.38107 8.8525 4.52585 -24.10782 -8.94992 3.83718 4.21853
0.00131 7e-05 -0.00026 172.61883 -44.49143 -0.20051 55.96764 1.37389 2.31121 -5.37522 -4.20356 -1.07225 128.57164 -72.50091 -86.45787 7.92802 75.01745 0.94894 -8.93728 155.55341 74.36018 82.7243 8.35103 -70.70395 5.04867 10.28525 48.89945 -5.26213 -7.55084 -19.00603 -7.7078 -3.65468 -4.06382 52.36779 8.91851 4.8955 -24.10891 -8.92135 3.81102 4.20309
0.00153 8e-05 -0.00026 172.6692 -44.46627 -0.17504 55.96173 1.2985 2.30324 -5.4759 -3.89864 -1.07572 128.39242 -72.49547 -86.61782 7.94589 75.05539 0.98854 -8.90386 155.60746 74.31558 82.95877 8.3525 -70.71562 5.14169 10.23369 48.87309 -5.35063 -8.01197 -19.01078 -7.68045 -3.62785 -4.04702 52.35583 8.9868 5.27459 -24.10993 -8.89163 3.78389 4.18711
0.00174 9e-05 -0.00024 172.70758 -44.44055 -0.15178 55.95143 1.23269 2.29979 -5.57238 -3.62633 -1.07918 128.18793 -72.49773 -86.755 7.94213 75.074 1.00119 -8.86874 155.637 74.28988 83.14403 8.35651 -70.72344 5.21001 10.19613 48.85049 -5.42193 -8.36533 -19.01561 -7.65876 -3.60589 -4.03371 52.34103 9.05013 5.6332 -24.1111 -8.86433 3.75879 4.1723
0.00195 0.0001 -0.00017 172.71246 -44.41401 -0.13488 55.92951 1.19247 2.30885 -5.65719 -3.43911 -1.08271 127.96488 -72.51254 -86.83153 7.88452 75.03785 0.93854 -8.83592 155.63707 74.30056 83.15916 8.3783 -70.73014 5.21389 10.21278 48.83912 -5.44476 -8.41665 -19.02075 -7.65281 -3.5973 -4.03013 52.31889 9.10097 5.93973 -24.11257 -8.84376 3.73944 4.1607
0.00216 0.00011 -8e-05 172.7054 -44.38678 -0.12013 55.90309 1.16198 2.32253 -5.73776 -3.28543 -1.0862 127.70102 -72.53666 -86.88365 7.80426 74.98289 0.84819 -8.79966 155.59548 74.33347 83.12923 8.40058 -70.73191 5.18991 10.24011 48.83139 -5.45056 -8.36082 -19.026 -7.65251 -3.5936 -4.03003 52.29384 9.14657 6.22469 -24.11422 -8.82562 3.72211 4.15029
0.00237 0.00012 0 172.70416 -44.3594 -0.10425 55.87851 1.12748 2.33394 -5.82044 -3.11926 -1.08966 127.43032 -72.56213 -86.94736 7.73068 74.93732 0.77251 -8.76095 155.56109 74.36586 83.14563 8.4156 -70.7289 5.17962 10.25284 48.82132 -5.46498 -8.35826 -19.0311 -7.64953 -3.58768 -4.02826 52.26978 9.19393 6.51717 -24.11582 -8.80629 3.70369 4.13935
0.00257 0.00014 8e-05 172.70119 -44.33399 -0.08912 55.85491 1.09132 2.34575 -5.90256 -2.94152 -1.09335 127.29145 -72.5641 -87.01399 7.67196 74.88704 0.6916 -8.74093 155.61745 74.35631 83.06175 8.46046 -70.75269 5.17495 10.30861 48.81395 -5.47564 -8.33655 -19.03646 -7.64709 -3.5818 -4.02687 52.24699 9.24419 6.82032 -24.11721 -8.78725 3.68589 4.12835
0.00279 0.00014 0.00018 172.69904 -44.3043 -0.0728 55.82805 1.06087 2.35826 -5.98459 -2.79585 -1.09654 126.83731 -72.61716 -87.06236 7.57737 74.84353 0.61048 -8.679 155.42313 74.44133 83.16485 8.44314 -70.72302 5.13939 10.27491 48.80207 -5.49011 -8.32884 -19.04148 -7.64481 -3.57697 -4.02551 52.22103 9.28683 7.09479 -24.11918 -8.76828 3.66742 4.1178
0.00302 0.00013 0.0003 172.70162 -44.26318 -0.0541 55.79442 1.04424 2.36798 -6.06872 -2.73021 -1.09839 125.78385 -72.80674 -87.09164 7.38581 74.80387 0.57258 -8.51903 154.98634 74.76048 83.86098 8.25564 -70.51246 5.13748 10.00875 48.77504 -5.51906 -8.39072 -19.04401 -7.64192 -3.57382 -4.02331 52.18576 9.31286 7.30712 -24.12197 -8.74787 3.64534 4.10762
0.00327 0.0001 0.00044 172.70543 -44.21781 -0.03397 55.75734 1.03302 2.37912 -6.15214 -2.69563 -1.09974 124.36312 -73.0458 -87.07836 7.15972 74.77028 0.52715 -8.31276 154.21445 75.17468 84.71346 8.00555 -70.25173 5.08752 9.64707 48.74381 -5.55243 -8.46965 -19.04652 -7.63889 -3.57149 -4.021 52.14769 9.33099 7.48927 -24.12548 -8.72755 3.62271 4.09793
0.00352 7e-05 0.00057 172.7091 -44.17418 -0.01342 55.72127 1.01896 2.39172 -6.23565 -2.64716 -1.10131 122.94255 -73.26626 -87.09368 6.95158 74.75309 0.46268 -8.11807 153.31051 75.56375 85.47817 7.78269 -70.04036 4.9822 9.32021 48.71554 -5.58392 -8.53761 -19.04996 -7.63574 -3.56887 -4.01885 52.11166 9.35048 7.67734 -24.12916 -8.70797 3.60122 4.08844
0.00373 8e-05 0.00071 172.71098 -44.13105 0.00295 55.68789 1.00653 2.39481 -6.32209 -2.59934 -1.10288 122.23532 -73.47897 -87.15234 6.73261 74.67508 0.49774 -7.96779 153.61453 75.89113 86.3987 7.56378 -69.72888 5.18944 9.03773 48.68248 -5.61437 -8.61503 -19.04931 -7.63373 -3.56633 -4.01651 52.07207 9.37853 7.89704 -24.13076 -8.68552 3.57622 4.07736
0.00402 1e-05 0.00084 172.71653 -44.08623 0.02789 55.64754 0.99225 2.41896 -6.39967 -2.55656 -1.10437 119.94212 -73.70903 -87.00648 6.52892 74.69942 0.31697 -7.70832 151.31224 76.35198 86.92349 7.32324 -69.59875 4.75016 8.63026 48.65893 -5.64815 -8.67867 -19.05744 -7.62903 -3.56345 -4.0143 52.03957 9.38775 8.04463 -24.13684 -8.66858 3.55813 4.06952
0.00447 -0.00022 0.00097 172.73654 -44.03467 0.08075 55.59341 0.96812 2.49242 -6.47533 -2.5249 -1.10569 113.48659 -74.05828 -87.25534 6.37067 75.24542 -0.39297 -7.21271 142.00757 77.30115 87.30426 7.02556 -70.11693 2.40061 7.99006 48.65764 -5.69126 -8.69651 -19.08743 -7.61891 -3.56222 -4.01406 52.02468 9.3398 7.99498 -24.15522 -8.67095 3.56147 4.07202
0.005 -0.00053 0.00108 172.75958 -43.98201 0.14147 55.53124 0.9424 2.58842 -6.53773 -2.49626 -1.10703 105.43354 -74.40379 -87.16143 6.23009 75.86173 -1.3287 -6.60238 130.08398 78.35097 87.13594 6.71066 -70.79685 -0.57434 7.21489 48.66686 -5.73747 -8.70118 -19.12666 -7.60575 -3.56014 -4.01367 52.01743 9.2744 7.87499 -24.17806 -8.67816 3.57137 4.0775
0.00551 -0.00082 0.00119 172.77807 -43.93206 0.19543 55.47009 0.91974 2.67991 -6.59183 -2.46279 -1.10834 98.01666 -74.70124 -86.55305 6.08488 76.27254 -2.20753 -6.00452 119.26891 79.26535 86.52287 6.41194 -71.31053 -3.17054 6.43767 48.67475 -5.78152 -8.71465 -19.16331 -7.59263 -3.55656 -4.01228 52.00853 9.2218 7.79087 -24.19877 -8.68038 3.57678 4.08059
0.00596 -0.00106 0.00134 172.8093 -43.87318 0.26238 55.42112 0.8879 2.74801 -6.70728 -2.44467 -1.10946 90.92744 -75.22647 -88.61399 5.92396 77.36556 -2.9066 -5.55754 108.73237 80.57647 88.68769 6.07565 -72.20272 -6.15904 5.9074 48.66853 -5.82873 -8.71642 -19.19334 -7.58502 -3.56076 -4.0153 51.9922 9.14883 7.689 -24.21992 -8.6941 3.58846 4.08797
0.00654 -0.00141 0.00142 172.81554 -43.83202 0.30478 55.34342 0.87413 2.86918 -6.69067 -2.39535 -1.1113 82.82981 -75.25568 -85.23352 5.8006 77.11781 -4.01738 -4.78841 97.06651 81.06547 85.13322 5.81446 -72.35971 -8.48899 4.85372 48.69353 -5.87022 -8.73964 -19.23909 -7.56541 -3.5488 -4.00924 51.99276 9.11366 7.60804 -24.24122 -8.68538 3.58876 4.08724
0.00744 -0.00208 0.00134 172.74473 -43.84601 0.27166 55.20082 0.91564 3.13974 -6.32109 -2.25521 -1.11243 71.92274 -74.08815 -65.15796 5.7767 72.59 -6.35141 -2.99263 82.33619 79.41669 64.17563 5.76609 -70.32664 -8.75342 2.19826 48.8084 -5.8936 -8.82166 -19.32816 -7.51164 -3.49012 -3.97675 52.04181 9.19212 7.59997 -24.26174 -8.61021 3.55495 4.06235
0.00847 -0.00284 0.00119 172.65001 -43.87684 0.2146 55.02705 0.97439 3.46132 -5.81669 -2.08424 -1.11472 60.13568 -72.39013 -39.91603 5.79111 66.80442 -9.06726 -0.90453 66.67015 76.90797 37.78256 5.79528 -67.57143 -8.34951 -0.94553 48.95326 -5.91137 -8.9261 -19.4323 -7.44626 -3.41561 -3.93536 52.10695 9.30827 7.61577 -24.28225 -8.51291 3.50967 4.02941
